<?xml version="1.0" encoding="utf-8"?>
<!-- Generator: Adobe Illustrator 19.0.0, SVG Export Plug-In . SVG Version: 6.00 Build 0)  -->
<svg version="1.1" id="Layer_1" xmlns="http://www.w3.org/2000/svg" xmlns:xlink="http://www.w3.org/1999/xlink" x="0px" y="0px"
	 viewBox="0 0 35.7 34" style="enable-background:new 0 0 35.7 34;" xml:space="preserve">
<style type="text/css">
	.st0{clip-path:url(#XMLID_72_);fill:none;stroke:#FFFF00;stroke-miterlimit:10;}
</style>
<g id="XMLID_24_">
	<g id="XMLID_25_">
		<defs>
			
				<rect id="XMLID_31_" x="1.9" y="3.3" transform="matrix(-0.7071 -0.7071 0.7071 -0.7071 15.7314 42.8071)" width="29.6" height="29.6"/>
		</defs>
		<clipPath id="XMLID_72_">
			<use xlink:href="#XMLID_31_"  style="overflow:visible;"/>
		</clipPath>
		<path id="XMLID_26_" class="st0" d="M26.2,24.4l-5.9-5.9l4.8-0.1c0-4.7-3.8-8.7-8.5-8.7c-4.7,0-8.6,3.8-8.5,8.5
			c0,4.7,3.9,8.6,8.6,8.6c2.4,0,4.3-0.8,6-2.5l1.7,1.7c-1.7,1.7-4.7,3.2-7.8,3.2c-6.1,0-11.1-5-11.1-11.1c0-6.1,4.9-11,11-11
			c6.1,0,11,4.9,11,11l4.8-0.1L26.2,24.4z"/>
	</g>
</g>
</svg>
