<?xml version="1.0" standalone="no"?>
<!DOCTYPE svg PUBLIC "-//W3C//DTD SVG 20010904//EN"
 "http://www.w3.org/TR/2001/REC-SVG-20010904/DTD/svg10.dtd">
<svg version="1.0" xmlns="http://www.w3.org/2000/svg"
 width="960.000000pt" height="960.000000pt" viewBox="0 0 960.000000 960.000000"
 preserveAspectRatio="xMidYMid meet">
<metadata>
Created by potrace 1.11, written by Peter Selinger 2001-2013
</metadata>
<g transform="translate(0.000000,960.000000) scale(0.100000,-0.100000)"
fill="#000000" stroke="none">
<path d="M810 7184 c0 -4 23 -32 50 -64 28 -32 50 -62 50 -68 0 -6 4 -12 9
-14 5 -1 70 -79 145 -173 75 -93 145 -179 154 -190 10 -11 60 -74 112 -140 52
-66 99 -125 105 -131 5 -6 21 -25 35 -43 14 -18 36 -45 50 -61 14 -15 34 -41
45 -56 11 -16 30 -39 43 -52 12 -13 22 -27 22 -32 0 -4 4 -10 8 -12 4 -1 35
-37 67 -78 33 -41 62 -77 65 -80 4 -3 19 -23 36 -45 16 -22 39 -51 51 -65 19
-22 115 -141 146 -180 34 -44 93 -116 102 -126 5 -7 24 -29 41 -50 17 -22 143
-178 280 -349 298 -372 261 -325 331 -411 32 -39 69 -85 83 -104 14 -18 32
-41 40 -50 32 -37 81 -98 130 -160 28 -36 64 -81 80 -100 15 -19 54 -66 85
-105 31 -38 61 -77 68 -85 7 -8 50 -62 97 -120 46 -58 89 -110 95 -117 5 -7
15 -18 20 -25 40 -50 92 -115 100 -124 6 -7 19 -24 30 -40 11 -15 25 -32 30
-38 6 -6 57 -69 115 -141 57 -71 109 -137 117 -145 16 -19 70 -86 103 -129 14
-18 30 -38 35 -44 10 -11 193 -237 265 -327 16 -19 99 -123 186 -230 86 -107
191 -239 233 -292 42 -53 79 -97 84 -97 10 -1 87 82 87 95 0 3 11 17 25 32 14
15 87 104 161 197 75 94 149 186 165 205 15 19 79 98 141 175 168 209 272 338
290 360 9 11 47 58 84 105 38 47 70 87 74 90 3 3 18 22 33 43 16 20 38 48 50
61 12 14 31 37 42 52 11 15 35 43 52 63 18 20 33 39 33 44 0 4 8 15 18 25 9 9
62 74 117 142 55 69 102 127 105 130 3 3 21 25 40 50 19 25 42 54 52 65 31 38
493 611 523 649 17 22 35 44 40 50 6 6 28 34 50 61 22 28 44 55 50 62 5 6 20
24 32 40 12 15 30 38 40 50 10 12 29 36 43 53 14 18 39 49 55 69 17 21 41 52
55 70 14 18 32 40 41 49 8 10 78 96 155 192 76 96 146 184 156 195 37 45 90
111 173 215 33 41 62 77 65 80 3 3 23 28 45 55 22 28 43 52 47 53 5 2 8 10 8
18 0 8 3 14 8 14 4 0 34 34 67 77 33 42 65 81 70 87 6 6 82 101 170 211 182
227 182 227 213 263 12 15 48 61 80 102 31 41 62 80 68 85 6 6 39 45 73 88
l62 77 -3950 0 c-2173 0 -3951 -3 -3951 -6z m7213 -328 c-4 -6 -41 -54 -82
-106 -42 -52 -83 -103 -91 -113 -8 -11 -20 -24 -25 -31 -6 -6 -91 -112 -190
-236 -99 -124 -184 -230 -190 -236 -5 -6 -21 -25 -35 -43 -14 -18 -29 -38 -35
-44 -5 -7 -37 -46 -70 -87 -33 -41 -73 -91 -90 -111 -16 -20 -37 -44 -45 -55
-40 -51 -255 -320 -260 -324 -3 -3 -32 -39 -64 -80 -33 -41 -68 -84 -78 -95
-9 -11 -46 -56 -80 -100 -35 -44 -73 -91 -85 -105 -12 -14 -60 -74 -108 -135
-48 -60 -102 -128 -120 -150 -40 -48 -129 -158 -170 -210 -16 -21 -34 -43 -40
-49 -5 -6 -29 -36 -52 -66 -24 -30 -56 -71 -73 -90 -16 -19 -33 -40 -37 -45
-5 -6 -44 -55 -88 -110 -44 -55 -85 -107 -92 -115 -6 -8 -27 -33 -45 -56 -89
-109 -227 -280 -333 -414 -33 -41 -62 -77 -65 -80 -3 -3 -16 -19 -30 -36 -35
-44 -59 -74 -217 -270 -76 -95 -151 -189 -168 -210 -16 -21 -45 -55 -62 -75
-18 -20 -33 -39 -33 -43 0 -3 -8 -14 -17 -24 -24 -24 -71 -83 -83 -102 -10
-17 -15 -13 -85 75 -21 28 -42 52 -45 55 -3 3 -19 23 -35 45 -17 22 -32 42
-35 45 -12 12 -67 79 -90 109 -14 19 -33 43 -44 55 -10 11 -30 37 -45 56 -14
19 -36 46 -48 60 -25 30 -117 145 -153 191 -14 18 -29 37 -35 43 -5 6 -28 34
-50 61 -21 28 -42 52 -45 55 -3 3 -39 48 -80 100 -41 52 -83 104 -92 115 -9
11 -51 63 -93 115 -42 52 -81 102 -88 110 -7 8 -97 121 -201 250 -104 129
-192 237 -195 240 -3 3 -19 23 -36 45 -16 22 -32 42 -35 45 -3 3 -71 86 -150
185 -79 99 -148 182 -152 183 -4 2 -8 10 -8 17 0 7 -4 15 -9 17 -5 2 -41 44
-81 93 -39 50 -76 97 -83 105 -7 8 -57 71 -112 140 -55 69 -102 127 -105 130
-5 5 -89 107 -103 125 -4 6 -42 53 -85 106 -42 52 -90 113 -107 134 -47 60
-159 199 -165 205 -8 8 -52 63 -80 100 -14 18 -30 38 -35 44 -6 6 -65 79 -130
161 -66 83 -122 152 -125 155 -3 3 -23 28 -45 55 -22 28 -44 55 -50 62 -5 6
-21 26 -35 44 -14 18 -31 38 -37 45 -7 7 -13 17 -13 23 0 6 -3 11 -7 11 -5 0
-16 11 -25 24 l-17 24 3274 0 c2443 0 3273 -3 3268 -12z"/>
<path d="M2170 6642 c-5 -2 13 -31 41 -65 28 -34 56 -69 62 -77 16 -20 88
-109 109 -135 15 -19 262 -327 311 -388 12 -16 30 -38 40 -50 10 -12 31 -37
45 -56 15 -18 34 -41 42 -51 29 -35 46 -56 100 -125 30 -39 59 -75 65 -81 5
-6 24 -28 40 -50 17 -21 45 -56 63 -78 18 -23 39 -48 46 -57 7 -8 104 -130
216 -270 112 -139 206 -256 209 -259 4 -3 18 -21 33 -42 15 -20 33 -42 40 -50
7 -7 26 -31 43 -53 16 -22 34 -44 40 -50 6 -5 36 -41 66 -80 29 -38 56 -72 59
-75 4 -3 116 -142 250 -310 134 -168 247 -307 250 -310 3 -3 21 -25 40 -50 19
-25 37 -47 40 -50 3 -3 52 -63 109 -135 227 -286 225 -284 237 -271 5 6 27 34
49 61 22 28 42 52 45 55 3 3 50 61 105 130 55 69 107 134 116 145 10 11 52 63
94 115 41 52 81 102 88 110 7 8 26 33 42 55 16 22 33 42 36 45 3 3 54 65 113
139 60 74 112 139 117 145 5 6 33 41 62 77 250 314 502 626 513 635 8 6 14 14
14 18 0 4 6 13 13 20 6 7 26 30 42 51 30 38 82 102 113 140 10 11 33 40 52 65
19 25 37 47 40 50 3 3 68 84 145 180 77 96 142 177 145 180 3 3 39 48 80 100
104 132 261 326 325 403 11 13 29 36 40 51 11 15 34 44 51 64 66 76 145 182
137 183 -26 3 -5165 3 -5173 1z m4500 -330 c0 -4 -44 -62 -82 -107 -45 -55
-85 -105 -108 -135 -14 -18 -29 -38 -35 -44 -5 -6 -28 -34 -50 -61 -22 -28
-47 -59 -57 -70 -9 -11 -54 -67 -99 -125 -46 -58 -88 -110 -94 -116 -13 -15
-15 -17 -160 -199 -66 -82 -124 -155 -130 -161 -5 -7 -20 -25 -32 -40 -55 -71
-124 -157 -136 -169 -6 -7 -21 -25 -32 -39 -11 -15 -25 -32 -30 -39 -6 -6 -47
-57 -90 -112 -44 -55 -84 -105 -90 -111 -5 -6 -21 -26 -35 -44 -14 -18 -30
-38 -35 -44 -6 -6 -26 -31 -45 -56 -19 -25 -39 -50 -45 -56 -5 -6 -22 -26 -37
-45 -14 -19 -36 -45 -47 -59 -11 -14 -24 -30 -28 -35 -21 -27 -88 -111 -93
-115 -4 -4 -47 -57 -95 -118 -5 -7 -14 -18 -20 -25 -5 -7 -55 -67 -109 -135
-80 -100 -101 -121 -111 -110 -7 7 -50 60 -95 118 -46 58 -87 107 -90 110 -3
3 -21 25 -40 50 -19 25 -38 47 -42 48 -4 2 -8 10 -8 18 0 8 -3 14 -8 14 -4 0
-27 26 -52 58 -24 31 -52 66 -62 77 -10 11 -39 47 -65 81 -43 55 -304 380
-345 429 -20 24 -191 237 -233 291 -16 20 -34 42 -40 48 -5 6 -22 27 -37 48
-15 20 -33 42 -40 50 -7 7 -39 45 -70 84 -31 39 -62 78 -70 85 -7 8 -17 22
-23 31 -13 21 -531 666 -561 699 -13 14 -24 27 -24 30 0 3 862 6 1915 6 1053
0 1915 -2 1915 -5z"/>
</g>
</svg>
